<svg xmlns="http://www.w3.org/2000/svg" version="1.1" xmlns:xlink="http://www.w3.org/1999/xlink" width="200" height="200"><svg xmlns="http://www.w3.org/2000/svg" version="1.1" xmlns:xlink="http://www.w3.org/1999/xlink" viewBox="0 0 200 200"><rect width="200" height="200" fill="url('#gradient')"></rect><defs><linearGradient id="SvgjsLinearGradient1001" gradientTransform="rotate(45 0.5 0.5)"><stop offset="0%" stop-color="#faf0e6"></stop><stop offset="100%" stop-color="#faf0e6"></stop></linearGradient></defs><g><g fill="#192025" transform="matrix(2.5244992295839754,0,0,2.5244992295839754,11.137430870211546,113.33255937705606)" stroke="#faf0e6" stroke-width="0.2"><path d="M6.46-2.97L6.46-2.97Q6.46-3.39 6.02-3.64Q5.58-3.90 4.35-4.17Q3.12-4.44 2.31-4.89Q1.51-5.33 1.09-5.97Q0.67-6.60 0.67-7.42L0.67-7.42Q0.67-8.88 1.88-9.82Q3.08-10.76 5.02-10.76L5.02-10.76Q7.11-10.76 8.38-9.81Q9.65-8.87 9.65-7.32L9.65-7.32L6.35-7.32Q6.35-8.59 5.01-8.59L5.01-8.59Q4.49-8.59 4.14-8.31Q3.79-8.02 3.79-7.59L3.79-7.59Q3.79-7.15 4.22-6.88Q4.65-6.60 5.59-6.43Q6.53-6.25 7.25-6.01L7.25-6.01Q9.63-5.19 9.63-3.07L9.63-3.07Q9.63-1.62 8.34-0.71Q7.06 0.20 5.02 0.20L5.02 0.20Q3.66 0.20 2.60-0.29Q1.53-0.78 0.94-1.62Q0.34-2.46 0.34-3.39L0.34-3.39L3.42-3.39Q3.44-2.66 3.91-2.32Q4.38-1.98 5.11-1.98L5.11-1.98Q5.78-1.98 6.12-2.26Q6.46-2.53 6.46-2.97ZM11.19-10.57L14.28-10.57L14.38-9.33Q15.51-10.76 17.40-10.76L17.40-10.76Q19.40-10.76 20.11-9.17L20.11-9.17Q21.18-10.76 23.21-10.76L23.21-10.76Q26.43-10.76 26.51-6.88L26.51-6.88L26.51 0L23.21 0L23.21-6.67Q23.21-7.48 22.94-7.85Q22.67-8.22 21.94-8.22L21.94-8.22Q20.97-8.22 20.49-7.35L20.49-7.35L20.50-7.22L20.50 0L17.20 0L17.20-6.65Q17.20-7.48 16.93-7.85Q16.67-8.22 15.93-8.22L15.93-8.22Q14.98-8.22 14.48-7.35L14.48-7.35L14.48 0L11.19 0L11.19-10.57ZM37.64 0L34.35 0Q34.17-0.32 34.03-0.95L34.03-0.95Q33.13 0.20 31.49 0.20L31.49 0.20Q30 0.20 28.96-0.71Q27.91-1.61 27.91-2.98L27.91-2.98Q27.91-4.70 29.18-5.58Q30.45-6.46 32.87-6.46L32.87-6.46L33.89-6.46L33.89-7.01Q33.89-8.47 32.63-8.47L32.63-8.47Q31.46-8.47 31.46-7.31L31.46-7.31L28.16-7.31Q28.16-8.85 29.47-9.80Q30.77-10.76 32.79-10.76Q34.81-10.76 35.99-9.78Q37.16-8.79 37.19-7.07L37.19-7.07L37.19-2.39Q37.21-0.94 37.64-0.17L37.64-0.17L37.64 0ZM32.29-2.15L32.29-2.15Q32.90-2.15 33.31-2.41Q33.71-2.68 33.89-3.01L33.89-3.01L33.89-4.70L32.93-4.70Q31.21-4.70 31.21-3.15L31.21-3.15Q31.21-2.71 31.51-2.43Q31.82-2.15 32.29-2.15ZM38.95-10.57L42.03-10.57L42.14-9.33Q43.23-10.76 45.16-10.76L45.16-10.76Q46.81-10.76 47.62-9.78Q48.44-8.79 48.47-6.81L48.47-6.81L48.47 0L45.17 0L45.17-6.67Q45.17-7.47 44.84-7.85Q44.52-8.22 43.67-8.22L43.67-8.22Q42.71-8.22 42.24-7.46L42.24-7.46L42.24 0L38.95 0L38.95-10.57ZM52.86-10.57L54.50-3.92L56.17-10.57L59.64-10.57L56.19 0L52.83 0L49.38-10.57L52.86-10.57ZM65.61 0.20L65.61 0.20Q63.17 0.20 61.67-1.25Q60.17-2.71 60.17-5.03L60.17-5.03L60.17-5.30Q60.17-6.92 60.77-8.16Q61.37-9.40 62.52-10.08Q63.67-10.76 65.25-10.76L65.25-10.76Q67.48-10.76 68.77-9.38Q70.06-8.00 70.06-5.53L70.06-5.53L70.06-4.25L63.52-4.25Q63.69-3.36 64.29-2.85Q64.88-2.34 65.83-2.34L65.83-2.34Q67.39-2.34 68.27-3.44L68.27-3.44L69.78-1.66Q69.16-0.81 68.03-0.31Q66.90 0.20 65.61 0.20ZM65.23-8.22L65.23-8.22Q63.79-8.22 63.52-6.31L63.52-6.31L66.84-6.31L66.84-6.56Q66.86-7.35 66.44-7.79Q66.02-8.22 65.23-8.22Z"></path></g></g></svg><style>@media (prefers-color-scheme: light) { :root { filter: none; } }
@media (prefers-color-scheme: dark) { :root { filter: none; } }
</style></svg>